<svg width="512" height="512" viewBox="0 0 512 512" fill="none" xmlns="http://www.w3.org/2000/svg">
  <defs>
    <linearGradient id="iconGradient" x1="0%" y1="0%" x2="100%" y2="100%">
      <stop offset="0%" style="stop-color:#4F46E5" />
      <stop offset="100%" style="stop-color:#9333EA" />
    </linearGradient>
  </defs>
  
  <!-- Background: Squircle -->
  <rect x="0" y="0" width="512" height="512" rx="120" fill="url(#iconGradient)" />
  
  <!-- Chat Bubble Container -->
  <path d="M256 112C167.6 112 96 176.5 96 256C96 303 125.6 344.6 171.3 370.4C165.7 391.8 152.2 409.6 151.7 410.2C148.2 414.9 149.3 421.6 154.2 424.9C159.1 428.2 165.7 427 169.1 422.3C187.5 397.6 221.7 394 233.1 393.1C240.6 393.7 248.2 394 256 394C344.4 394 416 329.5 416 250C416 170.5 344.4 112 256 112Z" fill="white"/>

  <!-- The 'X' Cutout (Simulated with Background Color Stroke) -->
  <path d="M216 216L296 296M296 216L216 296" 
        stroke="url(#iconGradient)" 
        stroke-width="48" 
        stroke-linecap="round" 
        stroke-linejoin="round" />
        
  <!-- Online Status Indicator -->
  <circle cx="380" cy="132" r="32" fill="#22C55E" stroke="white" stroke-width="8"/>
</svg>
                    